<svg width="66" height="14" viewBox="0 0 66 14" fill="none" xmlns="http://www.w3.org/2000/svg">
<path d="M5.6666 13L1.91367 7.79688V13H0.709572V1.00293H1.91367V6.20605L5.6666 1.00293H7.16074L2.66074 6.99707L7.16074 13H5.6666ZM16.9113 7.75293V13H15.716V7.75293L12.9387 1.00293H14.2922L16.3137 6.3291L18.3352 1.00293H19.6887L16.9113 7.75293ZM35.0067 8.158C35.0067 8.962 34.8987 9.676 34.6827 10.3C34.4787 10.912 34.1787 11.434 33.7827 11.866C33.3987 12.298 32.9247 12.628 32.3607 12.856C31.8087 13.072 31.1907 13.18 30.5067 13.18C29.8707 13.18 29.2827 13.072 28.7427 12.856C28.2027 12.628 27.7347 12.298 27.3387 11.866C26.9427 11.434 26.6307 10.912 26.4027 10.3C26.1867 9.676 26.0787 8.962 26.0787 8.158C26.0787 7.09 26.2587 6.19 26.6187 5.458C26.9787 4.714 27.4947 4.15 28.1667 3.766C28.8387 3.37 29.6367 3.172 30.5607 3.172C31.4367 3.172 32.2047 3.37 32.8647 3.766C33.5367 4.15 34.0587 4.714 34.4307 5.458C34.8147 6.19 35.0067 7.09 35.0067 8.158ZM27.7167 8.158C27.7167 8.914 27.8127 9.574 28.0047 10.138C28.2087 10.69 28.5207 11.116 28.9407 11.416C29.3607 11.716 29.8947 11.866 30.5427 11.866C31.1907 11.866 31.7247 11.716 32.1447 11.416C32.5647 11.116 32.8707 10.69 33.0627 10.138C33.2667 9.574 33.3687 8.914 33.3687 8.158C33.3687 7.39 33.2667 6.736 33.0627 6.196C32.8587 5.656 32.5467 5.242 32.1267 4.954C31.7187 4.654 31.1847 4.504 30.5247 4.504C29.5407 4.504 28.8267 4.828 28.3827 5.476C27.9387 6.124 27.7167 7.018 27.7167 8.158ZM33.2067 0.813999V2.092H27.8607V0.813999H33.2067ZM48.8139 2.19824H45.9662V13H44.7621V2.19824H41.765L41.9145 1.00293H48.9633L48.8139 2.19824ZM64.4268 6.99707C64.4268 5.69629 64.0869 4.5918 63.4072 3.68359C62.6631 2.69336 61.6582 2.19824 60.3926 2.19824C59.1152 2.19824 58.1045 2.69336 57.3604 3.68359C56.6689 4.58594 56.3232 5.69043 56.3232 6.99707C56.3232 8.30957 56.6689 9.41699 57.3604 10.3193C58.1045 11.3037 59.1152 11.7959 60.3926 11.7959C61.6523 11.7959 62.6572 11.3037 63.4072 10.3193C64.0869 9.41113 64.4268 8.30371 64.4268 6.99707ZM65.6221 6.99707C65.6221 8.62598 65.168 10.0176 64.2598 11.1719C63.2871 12.3906 61.998 13 60.3926 13C58.7754 13 57.4805 12.3906 56.5078 11.1719C55.5879 10.041 55.1279 8.64941 55.1279 6.99707C55.1279 5.35059 55.5879 3.96191 56.5078 2.83105C57.4805 1.6123 58.7754 1.00293 60.3926 1.00293C61.998 1.00293 63.2871 1.6123 64.2598 2.83105C65.168 3.96777 65.6221 5.35645 65.6221 6.99707Z" fill="black"/>
</svg>
