<svg width="47" height="62" viewBox="0 0 47 62" fill="none" xmlns="http://www.w3.org/2000/svg">
<mask id="path-1-outside-1_144_81" maskUnits="userSpaceOnUse" x="0" y="0" width="47" height="62" fill="black">
<rect fill="white" width="47" height="62"/>
<path d="M45.835 35.656C45.835 39.4187 45.359 42.8413 44.407 45.924C43.455 48.9613 42.027 51.5907 40.123 53.812C38.2643 56.0333 35.9297 57.7333 33.119 58.912C30.3537 60.0907 27.135 60.68 23.463 60.68C19.655 60.68 16.3457 60.0907 13.535 58.912C10.7243 57.688 8.38967 55.988 6.531 53.812C4.67233 51.5907 3.28967 48.9387 2.383 45.856C1.47633 42.7733 1.023 39.3507 1.023 35.588C1.023 30.6013 1.839 26.2493 3.471 22.532C5.103 18.8147 7.57367 15.9133 10.883 13.828C14.2377 11.7427 18.4537 10.7 23.531 10.7C28.3817 10.7 32.4617 11.7427 35.771 13.828C39.0803 15.868 41.5737 18.7693 43.251 22.532C44.9737 26.2493 45.835 30.624 45.835 35.656ZM7.483 35.656C7.483 39.736 8.04967 43.2493 9.183 46.196C10.3163 49.1427 12.0617 51.4093 14.419 52.996C16.8217 54.5827 19.8363 55.376 23.463 55.376C27.135 55.376 30.127 54.5827 32.439 52.996C34.7963 51.4093 36.5417 49.1427 37.675 46.196C38.8083 43.2493 39.375 39.736 39.375 35.656C39.375 29.536 38.1057 24.7533 35.567 21.308C33.0283 17.8173 29.0163 16.072 23.531 16.072C19.859 16.072 16.8217 16.8653 14.419 18.452C12.0617 19.9933 10.3163 22.2373 9.183 25.184C8.04967 28.0853 7.483 31.576 7.483 35.656ZM33.527 1.86V6.688H13.331V1.86H33.527Z"/>
</mask>
<path d="M45.835 35.656C45.835 39.4187 45.359 42.8413 44.407 45.924C43.455 48.9613 42.027 51.5907 40.123 53.812C38.2643 56.0333 35.9297 57.7333 33.119 58.912C30.3537 60.0907 27.135 60.68 23.463 60.68C19.655 60.68 16.3457 60.0907 13.535 58.912C10.7243 57.688 8.38967 55.988 6.531 53.812C4.67233 51.5907 3.28967 48.9387 2.383 45.856C1.47633 42.7733 1.023 39.3507 1.023 35.588C1.023 30.6013 1.839 26.2493 3.471 22.532C5.103 18.8147 7.57367 15.9133 10.883 13.828C14.2377 11.7427 18.4537 10.7 23.531 10.7C28.3817 10.7 32.4617 11.7427 35.771 13.828C39.0803 15.868 41.5737 18.7693 43.251 22.532C44.9737 26.2493 45.835 30.624 45.835 35.656ZM7.483 35.656C7.483 39.736 8.04967 43.2493 9.183 46.196C10.3163 49.1427 12.0617 51.4093 14.419 52.996C16.8217 54.5827 19.8363 55.376 23.463 55.376C27.135 55.376 30.127 54.5827 32.439 52.996C34.7963 51.4093 36.5417 49.1427 37.675 46.196C38.8083 43.2493 39.375 39.736 39.375 35.656C39.375 29.536 38.1057 24.7533 35.567 21.308C33.0283 17.8173 29.0163 16.072 23.531 16.072C19.859 16.072 16.8217 16.8653 14.419 18.452C12.0617 19.9933 10.3163 22.2373 9.183 25.184C8.04967 28.0853 7.483 31.576 7.483 35.656ZM33.527 1.86V6.688H13.331V1.86H33.527Z" fill="black"/>
<path d="M44.407 45.924L45.3612 46.2231L45.3625 46.2191L44.407 45.924ZM40.123 53.812L39.3637 53.1612L39.3561 53.1703L40.123 53.812ZM33.119 58.912L32.7323 57.9898L32.7269 57.9921L33.119 58.912ZM13.535 58.912L13.1357 59.8289L13.1483 59.8342L13.535 58.912ZM6.531 53.812L5.76402 54.4538L5.77063 54.4615L6.531 53.812ZM2.383 45.856L1.42363 46.1382L2.383 45.856ZM3.471 22.532L4.38664 22.934L3.471 22.532ZM10.883 13.828L10.3551 12.9787L10.3499 12.982L10.883 13.828ZM35.771 13.828L35.2379 14.6741L35.2463 14.6793L35.771 13.828ZM43.251 22.532L42.3376 22.9392L42.3406 22.9458L42.3437 22.9525L43.251 22.532ZM14.419 52.996L13.8606 53.8256L13.8679 53.8305L14.419 52.996ZM32.439 52.996L31.8806 52.1664L31.8732 52.1715L32.439 52.996ZM35.567 21.308L34.7582 21.8962L34.7619 21.9012L35.567 21.308ZM14.419 18.452L14.9663 19.289L14.9701 19.2865L14.419 18.452ZM9.183 25.184L10.1145 25.5479L10.1163 25.543L9.183 25.184ZM33.527 1.86H34.527V0.859999H33.527V1.86ZM33.527 6.688V7.688H34.527V6.688H33.527ZM13.331 6.688H12.331V7.688H13.331V6.688ZM13.331 1.86V0.859999H12.331V1.86H13.331ZM44.835 35.656C44.835 39.3348 44.3696 42.6562 43.4515 45.6289L45.3625 46.2191C46.3484 43.0265 46.835 39.5025 46.835 35.656H44.835ZM43.4528 45.6249C42.5377 48.5445 41.1721 51.0514 39.3637 53.1612L40.8823 54.4628C42.8819 52.1299 44.3723 49.3782 45.3612 46.2231L43.4528 45.6249ZM39.3561 53.1703C37.6053 55.2627 35.4036 56.8696 32.7323 57.9898L33.5057 59.8342C36.4558 58.5971 38.9234 56.804 40.8899 54.4537L39.3561 53.1703ZM32.7269 57.9921C30.1098 59.1076 27.0293 59.68 23.463 59.68V61.68C27.2407 61.68 30.5976 61.0738 33.5111 59.8319L32.7269 57.9921ZM23.463 59.68C19.7558 59.68 16.5835 59.106 13.9217 57.9898L13.1483 59.8342C16.1078 61.0753 19.5542 61.68 23.463 61.68V59.68ZM13.9343 57.9952C11.2526 56.8273 9.04458 55.2151 7.29137 53.1625L5.77063 54.4615C7.73475 56.7609 10.1961 58.5487 13.1357 59.8288L13.9343 57.9952ZM7.29794 53.1703C5.53663 51.0653 4.21453 48.5392 3.34237 45.5738L1.42363 46.1382C2.36481 49.3382 3.80804 52.116 5.76406 54.4537L7.29794 53.1703ZM3.34237 45.5738C2.46679 42.5969 2.023 39.271 2.023 35.588H0.0230002C0.0230002 39.4303 0.485876 42.9498 1.42363 46.1382L3.34237 45.5738ZM2.023 35.588C2.023 30.7089 2.82144 26.4992 4.38664 22.934L2.55536 22.13C0.856556 25.9995 0.0230002 30.4937 0.0230002 35.588H2.023ZM4.38664 22.934C5.94157 19.3922 8.28244 16.6487 11.4161 14.674L10.3499 12.982C6.86489 15.178 4.26443 18.2371 2.55536 22.13L4.38664 22.934ZM11.4109 14.6773C14.5678 12.7149 18.5878 11.7 23.531 11.7V9.7C18.3196 9.7 13.9075 10.7704 10.3551 12.9787L11.4109 14.6773ZM23.531 11.7C28.2382 11.7 32.1226 12.711 35.2379 14.674L36.3041 12.982C32.8008 10.7744 28.5251 9.7 23.531 9.7V11.7ZM35.2463 14.6793C38.3739 16.6072 40.7371 19.3487 42.3376 22.9392L44.1644 22.1248C42.4103 18.19 39.7868 15.1288 36.2957 12.9767L35.2463 14.6793ZM42.3437 22.9525C43.993 26.5115 44.835 30.7368 44.835 35.656H46.835C46.835 30.5112 45.9543 25.9872 44.1583 22.1115L42.3437 22.9525ZM6.483 35.656C6.483 39.8246 7.06147 43.4657 8.24965 46.555L10.1163 45.837C9.03786 43.033 8.483 39.6474 8.483 35.656H6.483ZM8.24965 46.555C9.44815 49.6711 11.3142 52.1117 13.8606 53.8256L14.9774 52.1664C12.8091 50.707 11.1845 48.6143 10.1163 45.837L8.24965 46.555ZM13.8679 53.8305C16.4719 55.55 19.6912 56.376 23.463 56.376V54.376C19.9815 54.376 17.1715 53.6153 14.9701 52.1615L13.8679 53.8305ZM23.463 56.376C27.2752 56.376 30.4817 55.5521 33.0048 53.8205L31.8732 52.1715C29.7723 53.6132 26.9948 54.376 23.463 54.376V56.376ZM32.9974 53.8256C35.5438 52.1117 37.4099 49.6711 38.6083 46.555L36.7417 45.837C35.6735 48.6143 34.0489 50.707 31.8806 52.1664L32.9974 53.8256ZM38.6083 46.555C39.7965 43.4657 40.375 39.8246 40.375 35.656H38.375C38.375 39.6474 37.8201 43.033 36.7417 45.837L38.6083 46.555ZM40.375 35.656C40.375 29.4112 39.0814 24.3918 36.3721 20.7148L34.7619 21.9012C37.1299 25.1149 38.375 29.6608 38.375 35.656H40.375ZM36.3757 20.7198C33.5987 16.9014 29.2402 15.072 23.531 15.072V17.072C28.7925 17.072 32.458 18.7332 34.7583 21.8962L36.3757 20.7198ZM23.531 15.072C19.7167 15.072 16.4738 15.8967 13.8679 17.6175L14.9701 19.2865C17.1696 17.834 20.0013 17.072 23.531 17.072V15.072ZM13.8718 17.615C11.3178 19.2849 9.44882 21.7072 8.24965 24.825L10.1163 25.543C11.1839 22.7675 12.8056 20.7017 14.9662 19.289L13.8718 17.615ZM8.25154 24.8201C7.06128 27.8672 6.483 31.4881 6.483 35.656H8.483C8.483 31.6639 9.03806 28.3034 10.1145 25.5478L8.25154 24.8201ZM32.527 1.86V6.688H34.527V1.86H32.527ZM33.527 5.688H13.331V7.688H33.527V5.688ZM14.331 6.688V1.86H12.331V6.688H14.331ZM13.331 2.86H33.527V0.859999H13.331V2.86Z" fill="black" mask="url(#path-1-outside-1_144_81)"/>
</svg>
